<svg width="20" height="20" viewBox="0 0 20 20" fill="none" xmlns="http://www.w3.org/2000/svg">
<path d="M11.8045 7.17712C10.9319 6.42361 9.60092 5.86431 8.71295 6.91349C8.19658 7.52417 8.1679 8.45788 8.77633 9.02185C9.39411 9.59449 10.2928 9.71195 11.0039 10.1291C11.6671 10.5182 12.0173 11.2991 11.6491 11.9718C10.9666 13.2199 9.4675 12.9502 8.39873 12.4056C8.12387 12.2655 7.88036 12.6799 8.15656 12.8208C9.19864 13.3514 10.5216 13.6804 11.5163 12.8722C12.1067 12.3923 12.3916 11.6962 12.2228 10.9467C12.0213 10.0523 11.1974 9.64188 10.4182 9.33286C9.76304 9.07324 8.79968 8.80761 8.80035 7.94664C8.80035 7.53685 9.04119 7.16777 9.39077 6.95887C10.1073 6.52972 10.9219 7.04697 11.4663 7.5175C11.6991 7.71839 12.0407 7.38001 11.8058 7.17778L11.8045 7.17712Z" fill="#3E414C" stroke="#3E414C" stroke-width="0.8" stroke-linejoin="round"/>
<path d="M9.91516 5.55222V6.55556C9.91516 6.86444 10.3955 6.86511 10.3955 6.55556V5.55222C10.3955 5.24334 9.91516 5.24268 9.91516 5.55222Z" fill="#3E414C" stroke="#3E414C" stroke-width="0.8" stroke-linejoin="round"/>
<path d="M9.91516 13.1811V14.1845C9.91516 14.4933 10.3955 14.494 10.3955 14.1845V13.1811C10.3955 12.8723 9.91516 12.8716 9.91516 13.1811Z" fill="#3E414C" stroke="#3E414C" stroke-width="0.8" stroke-linejoin="round"/>
<path d="M15.5272 4.54334C14.1008 3.20384 12.2075 2.44633 10.2467 2.46902C8.28198 2.49171 6.40263 3.29394 5.0063 4.67215C4.91423 4.76359 4.9149 4.92043 5.0063 5.01187C5.47196 5.47772 5.93763 5.94358 6.40396 6.4101L6.51004 6.00832C4.9616 6.27929 3.41249 6.55093 1.86405 6.8219L2.15959 7.11756C2.43045 5.56849 2.70198 4.01876 2.97284 2.46969L2.57122 2.57581C3.03689 3.04166 3.50255 3.50752 3.96889 3.97404C4.06095 4.06614 4.2164 4.06547 4.30846 3.97404C6.09174 2.20873 8.56151 1.29904 11.0646 1.50728C13.6705 1.72419 16.0842 3.18649 17.4986 5.38495C18.3605 6.72445 18.8195 8.27886 18.8529 9.86998C18.8596 10.179 19.3399 10.1797 19.3332 9.86998C19.2712 6.89531 17.7534 4.10552 15.2643 2.46635C13.0781 1.02674 10.2894 0.621617 7.78095 1.36445C6.34059 1.79093 5.03565 2.57848 3.96889 3.63366H4.30846C3.8428 3.1678 3.37713 2.70195 2.9108 2.23542C2.79204 2.11663 2.5412 2.15867 2.50917 2.34154C2.23831 3.89061 1.96679 5.44035 1.69593 6.98942C1.66257 7.1783 1.802 7.31778 1.99147 7.28508C3.53991 7.01411 5.08902 6.74247 6.63747 6.4715C6.82026 6.43947 6.86163 6.18852 6.74354 6.06972C6.27787 5.60387 5.81221 5.13801 5.34587 4.67149V5.0112C8.04047 2.35155 12.4249 2.28882 15.1876 4.88239C15.4131 5.09396 15.7533 4.75558 15.5272 4.54334Z" fill="#3E414C" stroke="#3E414C" stroke-width="0.7" stroke-linejoin="round"/>
<path d="M1.33369 9.8694C1.30633 12.8868 2.78739 15.7513 5.28251 17.4539C7.46074 18.9402 10.2627 19.3807 12.7959 18.6612C14.2703 18.2428 15.6079 17.4425 16.696 16.366H16.3564L17.7541 17.7642C17.8729 17.883 18.1237 17.841 18.1557 17.6581C18.4266 16.1084 18.6975 14.5593 18.9683 13.0096C19.0017 12.8207 18.8622 12.6812 18.6728 12.7139C17.1243 12.9849 15.5752 13.2565 14.0268 13.5275C13.844 13.5595 13.8026 13.8105 13.9207 13.9293C14.3864 14.3951 14.852 14.861 15.3184 15.3275V14.9878C13.9674 16.3213 12.1421 17.0735 10.2407 17.0501C8.33737 17.0267 6.53408 16.2225 5.21647 14.8556C5.00165 14.6327 4.66207 14.9724 4.87689 15.1954C7.08247 17.4826 10.5289 18.162 13.433 16.8652C14.2629 16.4948 15.0121 15.9649 15.6586 15.3275C15.7507 15.2361 15.75 15.0792 15.6586 14.9878C15.1929 14.5219 14.7273 14.0561 14.2609 13.5896L14.1549 13.9913C15.7033 13.7204 17.2524 13.4487 18.8009 13.1778L18.5053 12.8821C18.2345 14.4318 17.9636 15.9809 17.6927 17.5306L18.0944 17.4245L16.6967 16.0263C16.6046 15.9342 16.4492 15.9349 16.3571 16.0263C14.5625 17.8023 12.0734 18.7113 9.55557 18.4884C7.03777 18.2655 4.49862 16.7511 3.10162 14.5099C2.23366 13.1177 1.79935 11.5059 1.81403 9.86873C1.8167 9.55972 1.33635 9.55905 1.33369 9.86873V9.8694Z" fill="#3E414C" stroke="#3E414C" stroke-width="0.7" stroke-linejoin="round"/>
</svg>
