<svg width="19" height="20" viewBox="0 0 19 20" fill="none" xmlns="http://www.w3.org/2000/svg">
<path d="M10.2058 0.894329L14.4504 3.01582C13.8272 3.34767 13.1822 3.71212 12.6479 4.13041C11.7955 4.79787 11.0776 5.71075 11.0776 7.02749C11.0776 7.45601 11.1548 7.848 11.2925 8.20551L10.2059 8.7488L2.34858 4.82015L10.2058 0.894329Z" stroke="#2960EC" stroke-width="1.6"/>
<path d="M0.966626 6.73988L9.03979 10.7774V18.5951L0.966626 14.5595V6.73988Z" stroke="#2960EC" stroke-width="1.6"/>
<path d="M17.7643 14.0551V14.151C17.739 14.6606 17.504 15.0735 17.0658 15.4772C16.5766 15.928 15.8933 16.312 15.0905 16.7351L11.3605 18.6001V10.7639L12.8017 10.0426C13.2422 10.3676 13.7268 10.6482 14.1959 10.903C14.429 11.0295 14.6541 11.1477 14.8732 11.2628C15.2743 11.4734 15.6552 11.6734 16.0276 11.8946C17.1845 12.5819 17.7643 13.2003 17.7643 14.0551Z" stroke="#2960EC" stroke-width="1.6"/>
</svg>
